<svg xmlns="http://www.w3.org/2000/svg" width="20" height="20" viewBox="0 0 20 20" fill="none"><path d="M14.6168 6.92495C15.1605 6.92495 15.6819 6.70897 16.0663 6.32452C16.4508 5.94007 16.6668 5.41864 16.6668 4.87495C16.6668 4.33126 16.4508 3.80983 16.0663 3.42538C15.6819 3.04093 15.1605 2.82495 14.6168 2.82495C14.0731 2.82495 13.5517 3.04093 13.1672 3.42538C12.7828 3.80983 12.5668 4.33126 12.5668 4.87495C12.5668 5.41864 12.7828 5.94007 13.1672 6.32452C13.5517 6.70897 14.0731 6.92495 14.6168 6.92495V6.92495Z" stroke="white" stroke-width="1.5" stroke-miterlimit="10" stroke-linecap="round" stroke-linejoin="round"></path><path opacity="0.4" d="M5.38337 6.92495C5.92707 6.92495 6.44849 6.70897 6.83294 6.32452C7.21739 5.94007 7.43337 5.41864 7.43337 4.87495C7.43337 4.33126 7.21739 3.80983 6.83294 3.42538C6.44849 3.04093 5.92707 2.82495 5.38337 2.82495C4.83968 2.82495 4.31825 3.04093 3.9338 3.42538C3.54936 3.80983 3.33337 4.33126 3.33337 4.87495C3.33337 5.41864 3.54936 5.94007 3.9338 6.32452C4.31825 6.70897 4.83968 6.92495 5.38337 6.92495V6.92495Z" stroke="white" stroke-width="1.5" stroke-miterlimit="10" stroke-linecap="round" stroke-linejoin="round"></path><path opacity="0.4" d="M14.6168 17.175C14.886 17.175 15.1526 17.1219 15.4013 17.0189C15.65 16.9159 15.876 16.7649 16.0663 16.5745C16.2567 16.3842 16.4077 16.1582 16.5107 15.9095C16.6137 15.6607 16.6668 15.3942 16.6668 15.125C16.6668 14.8557 16.6137 14.5892 16.5107 14.3405C16.4077 14.0917 16.2567 13.8657 16.0663 13.6754C15.876 13.485 15.65 13.334 15.4013 13.231C15.1526 13.128 14.886 13.075 14.6168 13.075C14.0731 13.075 13.5517 13.2909 13.1672 13.6754C12.7828 14.0598 12.5668 14.5813 12.5668 15.125C12.5668 15.6686 12.7828 16.1901 13.1672 16.5745C13.5517 16.959 14.0731 17.175 14.6168 17.175V17.175Z" stroke="white" stroke-width="1.5" stroke-miterlimit="10" stroke-linecap="round" stroke-linejoin="round"></path><path d="M5.38337 17.175C5.65258 17.175 5.91916 17.1219 6.16787 17.0189C6.41659 16.9159 6.64258 16.7649 6.83294 16.5745C7.0233 16.3842 7.1743 16.1582 7.27733 15.9095C7.38035 15.6607 7.43337 15.3942 7.43337 15.125C7.43337 14.8557 7.38035 14.5892 7.27733 14.3405C7.1743 14.0917 7.0233 13.8657 6.83294 13.6754C6.64258 13.485 6.41659 13.334 6.16787 13.231C5.91916 13.128 5.65258 13.075 5.38337 13.075C4.83968 13.075 4.31825 13.2909 3.9338 13.6754C3.54936 14.0598 3.33337 14.5813 3.33337 15.125C3.33337 15.6686 3.54936 16.1901 3.9338 16.5745C4.31825 16.959 4.83968 17.175 5.38337 17.175V17.175Z" stroke="white" stroke-width="1.5" stroke-miterlimit="10" stroke-linecap="round" stroke-linejoin="round"></path></svg>