<svg xmlns="http://www.w3.org/2000/svg" width="32" height="32" viewBox="0 0 32 32" fill="none"><path d="M22.5816 26.6168C22.0437 25.6744 21.4939 24.7357 20.9367 23.8051C19.695 21.7302 16.8216 21.3337 15.1209 23.0527C14.6762 23.5023 14.3476 23.9676 14.124 24.335C13.8774 24.7405 13.3735 24.9114 12.9329 24.735C5.42211 21.7273 5.26394 15.8368 5.55431 13.4029C5.62133 12.8416 6.14657 12.443 6.70063 12.5551C7.59538 12.7361 8.36679 12.7445 9.02901 12.6408C10.9995 12.3319 11.9363 10.0296 10.7759 8.40748C9.62005 6.79143 8.58749 5.38561 7.74388 4.25385C6.63341 2.764 4.38539 2.74322 3.2848 4.24041C1.10838 7.20107 -0.130009 10.8935 0.0108485 14.8816C0.32536 23.7899 7.63469 31.0094 16.5458 31.2218C17.9801 31.256 19.3748 31.1116 20.7098 30.8095C22.5852 30.3851 23.5347 28.2868 22.5816 26.6168Z" fill="#FCB043"></path><path d="M10.114 9.66673C9.85365 9.85922 9.48658 9.80412 9.29409 9.54369L6.48518 5.74318C6.29278 5.48285 6.34778 5.11578 6.60821 4.92329C6.86854 4.73089 7.23571 4.78589 7.4281 5.04632L10.237 8.84684C10.4294 9.10727 10.3744 9.47433 10.114 9.66673Z" fill="#E2791B"></path><path d="M21.9547 28.4316C21.6743 28.5935 21.3158 28.4974 21.154 28.2171L18.7911 24.1242C18.6291 23.8439 18.7253 23.4854 19.0056 23.3235C19.286 23.1617 19.6445 23.2577 19.8063 23.538L22.1693 27.6308C22.331 27.9111 22.235 28.2697 21.9547 28.4316Z" fill="#E2791B"></path><path d="M31.9999 9.03112C31.9999 4.29319 28.01 0.487171 23.2069 0.78997C18.9922 1.05559 15.612 4.56044 15.4876 8.78149C15.3667 12.8792 18.232 16.3298 22.0688 17.1194L22.3157 19.5609C22.3637 20.0356 22.9976 20.1605 23.2219 19.7396L24.5502 17.2494C28.7316 16.843 31.9999 13.3192 31.9999 9.03112Z" fill="#DEF2FC"></path><path d="M20.7535 12.2232C21.0894 12.2232 21.3616 11.9509 21.3616 11.6151C21.3616 11.2793 21.0894 11.0071 20.7535 11.0071C20.4177 11.0071 20.1455 11.2793 20.1455 11.6151C20.1455 11.9509 20.4177 12.2232 20.7535 12.2232Z" fill="#403A46"></path><path d="M23.7366 12.2231C24.0724 12.2231 24.3445 11.9509 24.3445 11.6151C24.3445 11.2794 24.0724 11.0072 23.7366 11.0072C23.4008 11.0072 23.1287 11.2794 23.1287 11.6151C23.1287 11.9509 23.4008 12.2231 23.7366 12.2231Z" fill="#403A46"></path><path d="M26.7705 12.2231C27.1063 12.2231 27.3785 11.9509 27.3785 11.6151C27.3785 11.2794 27.1063 11.0072 26.7705 11.0072C26.4348 11.0072 26.1626 11.2794 26.1626 11.6151C26.1626 11.9509 26.4348 12.2231 26.7705 12.2231Z" fill="#403A46"></path></svg>