<!-- Generated by IcoMoon.io -->
<svg version="1.1" xmlns="http://www.w3.org/2000/svg" width="32" height="32" viewBox="0 0 32 32">
<title>menu-4</title>
<path fill="none" stroke-linejoin="round" stroke-linecap="round" stroke-miterlimit="10" stroke-width="2.4" stroke="#fff" d="M25.008 10c1.061 0 2.078-0.421 2.828-1.172s1.172-1.768 1.172-2.828-0.421-2.078-1.172-2.828c-0.75-0.75-1.768-1.172-2.828-1.172s-2.078 0.421-2.828 1.172c-0.75 0.75-1.172 1.768-1.172 2.828s0.421 2.078 1.172 2.828c0.75 0.75 1.768 1.172 2.828 1.172v0z"></path>
<path fill="none" opacity="0.4" stroke-linejoin="round" stroke-linecap="round" stroke-miterlimit="10" stroke-width="2.4" stroke="#fff" d="M6.992 10c1.061 0 2.078-0.421 2.828-1.172s1.172-1.768 1.172-2.828c0-1.061-0.421-2.078-1.172-2.828s-1.768-1.172-2.828-1.172c-1.061 0-2.078 0.421-2.828 1.172s-1.172 1.768-1.172 2.828c0 1.061 0.421 2.078 1.172 2.828s1.768 1.172 2.828 1.172v0z"></path>
<path fill="none" opacity="0.4" stroke-linejoin="round" stroke-linecap="round" stroke-miterlimit="10" stroke-width="2.4" stroke="#fff" d="M25.008 30c0.525 0 1.045-0.103 1.531-0.305s0.926-0.496 1.298-0.867c0.371-0.371 0.666-0.812 0.867-1.298s0.305-1.005 0.305-1.531c0-0.525-0.104-1.045-0.305-1.531s-0.496-0.926-0.867-1.298c-0.371-0.371-0.812-0.666-1.298-0.867s-1.005-0.304-1.531-0.304c-1.061 0-2.078 0.421-2.828 1.171s-1.172 1.768-1.172 2.828 0.421 2.078 1.172 2.828c0.75 0.75 1.768 1.172 2.828 1.172v0z"></path>
<path fill="none" stroke-linejoin="round" stroke-linecap="round" stroke-miterlimit="10" stroke-width="2.4" stroke="#fff" d="M6.992 30c0.525 0 1.045-0.103 1.531-0.305s0.926-0.496 1.298-0.867c0.371-0.371 0.666-0.812 0.867-1.298s0.304-1.005 0.304-1.531c0-0.525-0.103-1.045-0.304-1.531s-0.496-0.926-0.867-1.298c-0.371-0.371-0.812-0.666-1.298-0.867s-1.005-0.304-1.531-0.304c-1.061 0-2.078 0.421-2.828 1.171s-1.172 1.768-1.172 2.828 0.421 2.078 1.172 2.828c0.75 0.75 1.768 1.172 2.828 1.172v0z"></path>
</svg>
