<!-- Generated by IcoMoon.io -->
<svg version="1.1" xmlns="http://www.w3.org/2000/svg" width="30" height="32" viewBox="0 0 30 32">
<title>menu_icon_hover</title>
<path fill="#fff" d="M24.533 2.133c1.771 0 3.2 1.429 3.2 3.2s-1.429 3.2-3.2 3.2-3.2-1.429-3.2-3.2 1.429-3.2 3.2-3.2zM24.533 0c-2.944 0-5.333 2.389-5.333 5.333s2.389 5.333 5.333 5.333 5.333-2.389 5.333-5.333-2.389-5.333-5.333-5.333v0z"></path>
<path fill="#fff" d="M5.333 2.133c1.771 0 3.2 1.429 3.2 3.2s-1.429 3.2-3.2 3.2-3.2-1.429-3.2-3.2 1.429-3.2 3.2-3.2zM5.333 0c-2.944 0-5.333 2.389-5.333 5.333s2.389 5.333 5.333 5.333 5.333-2.389 5.333-5.333-2.389-5.333-5.333-5.333v0z"></path>
<path fill="#fff" d="M24.533 23.467c1.771 0 3.2 1.429 3.2 3.2s-1.429 3.2-3.2 3.2-3.2-1.429-3.2-3.2 1.429-3.2 3.2-3.2zM24.533 21.333c-2.944 0-5.333 2.389-5.333 5.333s2.389 5.333 5.333 5.333 5.333-2.389 5.333-5.333-2.389-5.333-5.333-5.333v0z"></path>
<path fill="#fff" d="M5.333 23.467c1.771 0 3.2 1.429 3.2 3.2s-1.429 3.2-3.2 3.2-3.2-1.429-3.2-3.2 1.429-3.2 3.2-3.2zM5.333 21.333c-2.944 0-5.333 2.389-5.333 5.333s2.389 5.333 5.333 5.333 5.333-2.389 5.333-5.333-2.389-5.333-5.333-5.333v0z"></path>
</svg>
